<svg xmlns="http://www.w3.org/2000/svg" viewBox="80 -50 1762 1762">
	<path d="M 1192.6574 147.5407 c -29.0677 7.9276 -85.0011 36.1144 -108.7837 55.0525 c -48.4462 38.3165 -107.4625 99.9753 -232.9822 244.4331 c -225.0546 258.967 -294.641 323.7087 -389.7717 361.1444 c -47.1249 18.9381 -62.5396 47.1249 -44.9228 81.4777 c 19.8189 38.3165 69.5864 33.9123 148.4215 -14.0934 c 87.2032 -52.8504 159.432 -121.9963 319.7449 -306.0919 l 104.3795 -119.7942 l 3.0829 20.6997 c 10.1297 64.3013 14.0934 85.8819 22.021 117.5921 c 12.3318 51.0887 39.6378 134.7685 58.1354 179.6914 l 16.2955 39.1974 l -16.2955 20.2593 c -32.5911 40.9591 -177.0488 180.5722 -234.3034 226.3759 c -181.8935 145.3386 -366.8699 236.946 -615.2667 305.2111 c -60.3375 16.736 -72.2289 21.5806 -82.3585 33.0315 c -24.6635 27.306 -11.4509 71.7885 24.6635 83.6798 c 12.7722 3.9638 23.7827 2.2021 80.1564 -12.7722 c 258.5265 -69.1459 467.2856 -173.0851 663.2725 -330.315 c 32.1507 -25.5444 96.0116 -83.6798 141.8152 -129.0431 c 46.2441 -45.3633 84.1202 -81.9181 85.0011 -81.0373 c 0.8808 0.8808 22.4614 51.5291 48.0058 113.1879 c 78.8352 191.1423 92.9286 237.3864 86.3223 270.8583 c -7.0467 34.7932 14.0934 63.8609 48.8866 63.8609 c 33.0315 0 48.4462 -17.1764 59.8971 -61.6588 c 10.5701 -40.9591 61.6588 -105.7008 107.9029 -136.9706 c 20.2593 -13.653 23.3423 -15.4147 49.327 -12.7722 c 27.306 1.7617 28.6273 2.6425 44.042 -12.7722 c 13.653 -12.7722 15.8551 -18.0572 15.8551 -34.7932 c 0 -23.3423 -13.653 -45.3633 -35.2336 -55.9333 c -44.042 -21.1402 -113.6284 5.285 -181.453 70.4672 l -29.9486 28.6273 l -6.1659 -14.9743 c -3.0829 -8.368 -33.4719 -81.4777 -66.5034 -162.515 c -33.4719 -81.0373 -61.2184 -148.862 -62.0992 -150.1832 c -3.0829 -5.285 159.432 -186.2977 190.2614 -212.2824 c 16.736 -13.653 47.1249 -33.4719 67.3843 -44.042 c 34.3528 -17.1764 40.0782 -18.4976 77.9543 -19.8189 c 46.6845 -1.7617 72.6693 3.9638 125.0793 28.6273 c 18.0572 8.368 38.757 17.1764 46.2441 19.3785 c 18.0572 5.285 38.757 -2.2021 53.2908 -19.3785 c 9.6892 -11.8913 11.0105 -16.736 9.6892 -34.7932 c -2.6425 -25.9848 -11.0105 -35.674 -45.3633 -52.8504 c -64.7417 -33.0315 -120.2347 -47.5654 -179.2509 -48.0058 c -53.7312 0 -81.0373 6.1659 -129.0431 29.0677 c -67.3843 32.5911 -118.0326 76.1927 -202.5932 173.5255 c -47.1249 54.1717 -58.1354 64.7417 -62.0992 59.4567 c -7.4871 -9.6892 -40.0782 -113.6284 -52.8504 -167.8 c -14.9743 -65.1822 -18.9381 -147.9811 -8.8084 -183.6551 c 10.5701 -35.674 24.2231 -55.4929 51.9696 -74.431 c 26.8656 -18.9381 54.1717 -27.306 101.2966 -31.7102 c 41.8399 -3.5234 54.1717 -8.8084 65.6226 -27.306 c 19.3785 -30.8294 0 -71.7885 -38.3165 -80.5969 c -23.7827 -5.7255 -66.9438 0.4404 -91.6074 7.4871 z" stroke="#007F6B" stroke-width="30" fill="#00FFD7"/>
</svg>