<svg xmlns="http://www.w3.org/2000/svg" viewBox="36 32 175 175">
	<path d="M 194.325 100.776 C 196.884 101.817 198.76 97.75 196.974 96.416 S 187.429 91.116 180.773 90.604 S 166.757 91.781 159.139 98.449 S 144.507 113.953 140.461 118.589 C 139.366 116.624 135.788 105.857 135.151 103.378 S 132.246 91.832 132.175 86.13 S 133.349 75.08 136.713 72.246 S 143.372 68.173 145.922 67.784 S 149.216 67.252 152.261 67.181 S 156.618 60.133 146.807 61.727 S 131.504 69.874 127.362 73.628 S 110.503 92.753 105.474 98.456 S 94.105 111.171 89.04 115.775 S 76.998 124.416 73.563 125.41 S 71.756 131.57 75.617 130.295 S 85.18 126.151 92.334 119.811 S 104.199 108.196 112.38 98.598 S 122.298 87.052 127.044 81.704 C 126.69 87.619 126.767 90.794 128.586 99.204 S 133.542 115.44 136.575 123.14 C 129.225 130.957 131.615 129.185 121.429 139.044 S 98.715 157.464 89.288 162.496 S 73.398 170.281 68.472 172.006 S 59.86 175.1 55.255 176.363 S 49.047 177.764 46.411 178.699 S 44.873 184.445 48.101 183.655 S 54.151 181.977 60.933 180.152 S 80.425 173.404 92.358 166.887 S 111.79 154.45 118.473 148.844 S 131.875 136.381 138.828 128.554 C 141.9073 135.8887 145.632 144.454 148.394 151.253 S 151.228 158.232 152.22 161.101 S 153.692 165.857 153.784 167.177 S 153.916 168.467 153.655 169.63 S 152.89 172.488 155.006 173.651 S 158.587 170.802 159.227 168.868 S 161.941 163.792 163.429 161.949 S 166.442 158.37 169.596 156.102 S 172.443 154.247 173.227 153.816 S 174.234 153.252 174.783 153.356 S 175.355 153.695 175.865 153.977 S 178.18 155.107 179.107 153.313 S 179.255 149.565 177.741 148.594 S 173.546 147.88 171.637 148.861 S 167.935 150.517 164.814 152.984 S 162.566 155 160.825 156.77 S 158.446 159.493 157.673 160.902 C 156.402 156.537 152.23 146.675 151.154 144.272 S 145.624 130.797 142.641 124.084 C 148.297 117.904 144.488 121.668 155.148 109.755 S 173.535 95.459 178.805 95.846 S 185.888 96.928 187.986 97.804 S 189.719 98.452 191.212 99.19 S 193.195 100.269 194.325 100.776 Z" fill="#ffffff"/>
</svg>