<svg xmlns="http://www.w3.org/2000/svg" viewBox="125 -25 1762 1762">
	<path d="M 1255.4288 155.306 c -30.5976 8.3448 -89.4748 38.0152 -114.5092 57.95 c -50.996 40.3332 -113.1184 105.2372 -245.2444 257.298 c -236.8996 272.5968 -310.1484 340.746 -410.286 380.152 c -49.6052 19.9348 -65.8312 49.6052 -47.2872 85.766 c 20.862 40.3332 73.2488 35.6972 156.2332 -14.8352 c 91.7928 -55.632 167.8232 -128.4172 336.5736 -322.202 l 109.8732 -126.0992 l 3.2452 21.7892 c 10.6628 67.6856 14.8352 90.402 23.18 123.7812 c 12.9808 53.7776 41.724 141.8616 61.1952 189.1488 l 17.1532 41.2604 l -17.1532 21.3256 c -34.3064 43.1148 -186.3672 190.076 -246.6352 238.2904 c -191.4668 152.988 -386.1788 249.4168 -647.6492 321.2748 c -63.5132 17.6168 -76.0304 22.7164 -86.6932 34.77 c -25.9616 28.7432 -12.0536 75.5668 25.9616 88.084 c 13.4444 4.1724 25.0344 2.318 84.3752 -13.4444 c 272.1332 -72.7852 491.8796 -182.1948 698.1816 -347.7 c 33.8428 -26.8888 101.0648 -88.084 149.2792 -135.8348 c 48.678 -47.7508 88.5476 -86.2296 89.4748 -85.3024 c 0.9272 0.9272 23.6436 54.2412 50.5324 119.1452 c 82.9844 201.2024 97.8196 249.8804 90.8656 285.114 c -7.4176 36.6244 14.8352 67.222 51.4596 67.222 c 34.77 0 50.996 -18.0804 63.0496 -64.904 c 11.1264 -43.1148 64.904 -111.264 113.582 -144.1796 c 21.3256 -14.3716 24.5708 -16.226 51.9232 -13.4444 c 28.7432 1.8544 30.134 2.7816 46.36 -13.4444 c 14.3716 -13.4444 16.6896 -19.0076 16.6896 -36.6244 c 0 -24.5708 -14.3716 -47.7508 -37.088 -58.8772 c -46.36 -22.2528 -119.6088 5.5632 -191.0032 74.176 l -31.5248 30.134 l -6.4904 -15.7624 c -3.2452 -8.8084 -35.2336 -85.766 -70.0036 -171.0684 c -35.2336 -85.3024 -64.4404 -156.6968 -65.3676 -158.0876 c -3.2452 -5.5632 167.8232 -196.1028 200.2752 -223.4552 c 17.6168 -14.3716 49.6052 -35.2336 70.9308 -46.36 c 36.1608 -18.0804 42.1876 -19.4712 82.0572 -20.862 c 49.1416 -1.8544 76.494 4.1724 131.6624 30.134 c 19.0076 8.8084 40.7968 18.0804 48.678 20.3984 c 19.0076 5.5632 40.7968 -2.318 56.0956 -20.3984 c 10.1992 -12.5172 11.59 -17.6168 10.1992 -36.6244 c -2.7816 -27.3524 -11.59 -37.5516 -47.7508 -55.632 c -68.1492 -34.77 -126.5628 -50.0688 -188.6852 -50.5324 c -56.5592 0 -85.3024 6.4904 -135.8348 30.5976 c -70.9308 34.3064 -124.2448 80.2028 -213.256 182.6584 c -49.6052 57.0228 -61.1952 68.1492 -65.3676 62.586 c -7.8812 -10.1992 -42.1876 -119.6088 -55.632 -176.6316 c -15.7624 -68.6128 -19.9348 -155.7696 -9.272 -193.3212 c 11.1264 -37.5516 25.498 -58.4136 54.7048 -78.3484 c 28.2796 -19.9348 57.0228 -28.7432 106.628 -33.3792 c 44.042 -3.7088 57.0228 -9.272 69.0764 -28.7432 c 20.3984 -32.452 0 -75.5668 -40.3332 -84.8388 c -25.0344 -6.0268 -70.4672 0.4636 -96.4288 7.8812 z" fill="#FFFFFF"/>
</svg>